<svg width="1268" height="1179" viewBox="0 0 1268 1179" fill="none" xmlns="http://www.w3.org/2000/svg">
<path d="M902 945.037L897.889 945.779L370.889 1040.92L365 1041.98V92.0254L370.881 93.0781L897.881 187.381L902 188.118V945.037Z" stroke="black" stroke-width="10"/>
<line x1="853" y1="954" x2="853" y2="229" stroke="black" stroke-width="10"/>
<line y1="-5" x2="353.839" y2="-5" transform="matrix(0.989152 0.146898 -0.206734 0.978397 508 176.909)" stroke="black" stroke-width="10"/>
<path d="M781 1074.47L775.551 1073.98L412.551 1041.27L408 1040.86V145.591L411.546 144.514L774.546 34.2158L781 32.2549V1074.47Z" fill="white" stroke="black" stroke-width="10"/>
<path d="M706.5 599C716.254 599 725 607.914 725 620C725 632.086 716.254 641 706.5 641C696.746 641 688 632.086 688 620C688 607.914 696.746 599 706.5 599Z" stroke="black" stroke-width="10"/>
<path d="M678 457.5H513V330.452L678 291.324V457.5Z" stroke="black" stroke-width="10"/>
<path d="M586.5 326L657 453H535L586.5 326Z" fill="black"/>
<ellipse cx="590" cy="434.5" rx="11" ry="12" fill="white"/>
<path d="M579 373.5L601 367.5V410.5H579V373.5Z" fill="white"/>
<line x1="412.447" y1="1064.02" x2="746.447" y2="1094.02" stroke="black" stroke-width="10"/>
<path d="M417.829 1083.68L707.171 1112.76" stroke="black" stroke-width="10"/>
<line x1="427.543" y1="1109.03" x2="674.543" y2="1136.03" stroke="black" stroke-width="10"/>
</svg>
