<svg width="224" height="221" viewBox="0 0 224 221" fill="none" xmlns="http://www.w3.org/2000/svg">
<rect x="32.5" y="158.5" width="158" height="62" fill="#C7F7C6" stroke="black"/>
<path d="M78.0568 194V185.273H81.0057C81.6903 185.273 82.25 185.396 82.6847 185.643C83.1222 185.888 83.446 186.219 83.6562 186.636C83.8665 187.054 83.9716 187.52 83.9716 188.034C83.9716 188.548 83.8665 189.016 83.6562 189.436C83.4489 189.857 83.1278 190.192 82.6932 190.442C82.2585 190.689 81.7017 190.812 81.0227 190.812H78.9091V189.875H80.9886C81.4574 189.875 81.8338 189.794 82.1179 189.632C82.402 189.47 82.608 189.251 82.7358 188.976C82.8665 188.697 82.9318 188.384 82.9318 188.034C82.9318 187.685 82.8665 187.372 82.7358 187.097C82.608 186.821 82.4006 186.605 82.1136 186.449C81.8267 186.29 81.446 186.21 80.9716 186.21H79.1136V194H78.0568ZM86.5433 185.273V194H85.5376V185.273H86.5433ZM90.3114 194.153C89.8967 194.153 89.5202 194.075 89.1822 193.919C88.8441 193.76 88.5756 193.531 88.3768 193.233C88.1779 192.932 88.0785 192.568 88.0785 192.142C88.0785 191.767 88.1523 191.463 88.3001 191.23C88.4478 190.994 88.6452 190.81 88.8924 190.676C89.1396 190.543 89.4123 190.443 89.7106 190.378C90.0117 190.31 90.3143 190.256 90.6183 190.216C91.016 190.165 91.3384 190.126 91.5856 190.101C91.8356 190.072 92.0174 190.026 92.131 189.96C92.2475 189.895 92.3058 189.781 92.3058 189.619V189.585C92.3058 189.165 92.1907 188.838 91.9606 188.605C91.7333 188.372 91.3881 188.256 90.9251 188.256C90.445 188.256 90.0685 188.361 89.7958 188.571C89.5231 188.781 89.3313 189.006 89.2205 189.244L88.266 188.903C88.4364 188.506 88.6637 188.196 88.9478 187.974C89.2347 187.75 89.5472 187.594 89.8853 187.506C90.2262 187.415 90.5614 187.369 90.891 187.369C91.1012 187.369 91.3427 187.395 91.6154 187.446C91.891 187.494 92.1566 187.595 92.4123 187.749C92.6708 187.902 92.8853 188.134 93.0558 188.443C93.2262 188.753 93.3114 189.168 93.3114 189.688V194H92.3058V193.114H92.2546C92.1864 193.256 92.0728 193.408 91.9137 193.57C91.7546 193.732 91.543 193.869 91.2788 193.983C91.0146 194.097 90.6921 194.153 90.3114 194.153ZM90.4648 193.25C90.8626 193.25 91.1978 193.172 91.4705 193.016C91.7461 192.859 91.9535 192.658 92.0927 192.411C92.2347 192.163 92.3058 191.903 92.3058 191.631V190.71C92.2631 190.761 92.1694 190.808 92.0245 190.851C91.8825 190.891 91.7177 190.926 91.5302 190.957C91.3455 190.986 91.1651 191.011 90.989 191.034C90.8157 191.054 90.6751 191.071 90.5671 191.085C90.3058 191.119 90.0614 191.175 89.8342 191.251C89.6097 191.325 89.4279 191.437 89.2887 191.588C89.1523 191.736 89.0842 191.937 89.0842 192.193C89.0842 192.543 89.2134 192.807 89.4719 192.986C89.7333 193.162 90.0643 193.25 90.4648 193.25ZM95.5604 196.455C95.3899 196.455 95.2379 196.44 95.1044 196.412C94.9709 196.386 94.8786 196.361 94.8274 196.335L95.0831 195.449C95.3274 195.511 95.5433 195.534 95.7308 195.517C95.9183 195.5 96.0845 195.416 96.2294 195.266C96.3771 195.118 96.5121 194.878 96.6342 194.545L96.8217 194.034L94.4013 187.455H95.4922L97.299 192.67H97.3672L99.174 187.455H100.265L97.4865 194.955C97.3615 195.293 97.2067 195.572 97.022 195.794C96.8374 196.018 96.6229 196.185 96.3786 196.293C96.1371 196.401 95.8643 196.455 95.5604 196.455ZM103.83 194.136C103.284 194.136 102.803 193.999 102.385 193.723C101.967 193.445 101.641 193.053 101.405 192.547C101.169 192.038 101.051 191.438 101.051 190.744C101.051 190.057 101.169 189.46 101.405 188.955C101.641 188.449 101.969 188.058 102.389 187.783C102.81 187.507 103.295 187.369 103.847 187.369C104.273 187.369 104.609 187.44 104.857 187.582C105.107 187.722 105.297 187.881 105.428 188.06C105.561 188.236 105.665 188.381 105.739 188.494H105.824V185.273H106.83V194H105.858V192.994H105.739C105.665 193.114 105.56 193.264 105.423 193.446C105.287 193.625 105.092 193.786 104.839 193.928C104.587 194.067 104.25 194.136 103.83 194.136ZM103.966 193.233C104.369 193.233 104.71 193.128 104.989 192.918C105.267 192.705 105.479 192.411 105.624 192.036C105.768 191.658 105.841 191.222 105.841 190.727C105.841 190.239 105.77 189.811 105.628 189.445C105.486 189.075 105.276 188.788 104.997 188.584C104.719 188.376 104.375 188.273 103.966 188.273C103.54 188.273 103.185 188.382 102.901 188.601C102.619 188.817 102.408 189.111 102.266 189.483C102.126 189.852 102.057 190.267 102.057 190.727C102.057 191.193 102.128 191.616 102.27 191.997C102.415 192.375 102.628 192.676 102.909 192.901C103.193 193.122 103.545 193.233 103.966 193.233ZM110.737 194.153C110.322 194.153 109.946 194.075 109.608 193.919C109.27 193.76 109.001 193.531 108.803 193.233C108.604 192.932 108.504 192.568 108.504 192.142C108.504 191.767 108.578 191.463 108.726 191.23C108.874 190.994 109.071 190.81 109.318 190.676C109.565 190.543 109.838 190.443 110.136 190.378C110.438 190.31 110.74 190.256 111.044 190.216C111.442 190.165 111.764 190.126 112.011 190.101C112.261 190.072 112.443 190.026 112.557 189.96C112.673 189.895 112.732 189.781 112.732 189.619V189.585C112.732 189.165 112.616 188.838 112.386 188.605C112.159 188.372 111.814 188.256 111.351 188.256C110.871 188.256 110.494 188.361 110.222 188.571C109.949 188.781 109.757 189.006 109.646 189.244L108.692 188.903C108.862 188.506 109.089 188.196 109.374 187.974C109.661 187.75 109.973 187.594 110.311 187.506C110.652 187.415 110.987 187.369 111.317 187.369C111.527 187.369 111.768 187.395 112.041 187.446C112.317 187.494 112.582 187.595 112.838 187.749C113.097 187.902 113.311 188.134 113.482 188.443C113.652 188.753 113.737 189.168 113.737 189.688V194H112.732V193.114H112.68C112.612 193.256 112.499 193.408 112.339 193.57C112.18 193.732 111.969 193.869 111.705 193.983C111.44 194.097 111.118 194.153 110.737 194.153ZM110.891 193.25C111.288 193.25 111.624 193.172 111.896 193.016C112.172 192.859 112.379 192.658 112.518 192.411C112.661 192.163 112.732 191.903 112.732 191.631V190.71C112.689 190.761 112.595 190.808 112.45 190.851C112.308 190.891 112.143 190.926 111.956 190.957C111.771 190.986 111.591 191.011 111.415 191.034C111.241 191.054 111.101 191.071 110.993 191.085C110.732 191.119 110.487 191.175 110.26 191.251C110.036 191.325 109.854 191.437 109.714 191.588C109.578 191.736 109.51 191.937 109.51 192.193C109.51 192.543 109.639 192.807 109.898 192.986C110.159 193.162 110.49 193.25 110.891 193.25ZM118.419 187.455V188.307H115.027V187.455H118.419ZM116.016 185.886H117.022V192.125C117.022 192.409 117.063 192.622 117.145 192.764C117.23 192.903 117.338 192.997 117.469 193.045C117.603 193.091 117.743 193.114 117.891 193.114C118.002 193.114 118.093 193.108 118.164 193.097C118.235 193.082 118.292 193.071 118.334 193.062L118.539 193.966C118.471 193.991 118.375 194.017 118.253 194.043C118.131 194.071 117.976 194.085 117.789 194.085C117.505 194.085 117.226 194.024 116.953 193.902C116.684 193.78 116.459 193.594 116.28 193.344C116.104 193.094 116.016 192.778 116.016 192.398V185.886ZM122.606 194.136C121.975 194.136 121.431 193.997 120.974 193.719C120.52 193.438 120.169 193.045 119.922 192.543C119.677 192.037 119.555 191.449 119.555 190.778C119.555 190.108 119.677 189.517 119.922 189.006C120.169 188.491 120.512 188.091 120.953 187.804C121.396 187.514 121.913 187.369 122.504 187.369C122.845 187.369 123.181 187.426 123.514 187.54C123.846 187.653 124.149 187.838 124.422 188.094C124.694 188.347 124.912 188.682 125.074 189.099C125.235 189.517 125.316 190.031 125.316 190.642V191.068H120.271V190.199H124.294C124.294 189.83 124.22 189.5 124.072 189.21C123.927 188.92 123.72 188.692 123.45 188.524C123.183 188.357 122.868 188.273 122.504 188.273C122.103 188.273 121.757 188.372 121.464 188.571C121.174 188.767 120.951 189.023 120.795 189.338C120.639 189.653 120.561 189.991 120.561 190.352V190.932C120.561 191.426 120.646 191.845 120.816 192.189C120.99 192.53 121.23 192.79 121.537 192.969C121.843 193.145 122.2 193.233 122.606 193.233C122.87 193.233 123.109 193.196 123.322 193.122C123.538 193.045 123.724 192.932 123.88 192.781C124.037 192.628 124.157 192.437 124.243 192.21L125.214 192.483C125.112 192.812 124.94 193.102 124.699 193.352C124.457 193.599 124.159 193.793 123.804 193.932C123.449 194.068 123.049 194.136 122.606 194.136ZM137.721 189.636C137.721 190.557 137.555 191.352 137.223 192.023C136.89 192.693 136.434 193.21 135.855 193.574C135.275 193.938 134.613 194.119 133.869 194.119C133.125 194.119 132.463 193.938 131.883 193.574C131.304 193.21 130.848 192.693 130.515 192.023C130.183 191.352 130.017 190.557 130.017 189.636C130.017 188.716 130.183 187.92 130.515 187.25C130.848 186.58 131.304 186.062 131.883 185.699C132.463 185.335 133.125 185.153 133.869 185.153C134.613 185.153 135.275 185.335 135.855 185.699C136.434 186.062 136.89 186.58 137.223 187.25C137.555 187.92 137.721 188.716 137.721 189.636ZM136.699 189.636C136.699 188.881 136.572 188.243 136.319 187.723C136.069 187.203 135.73 186.81 135.301 186.543C134.875 186.276 134.397 186.142 133.869 186.142C133.341 186.142 132.862 186.276 132.433 186.543C132.007 186.81 131.667 187.203 131.414 187.723C131.164 188.243 131.039 188.881 131.039 189.636C131.039 190.392 131.164 191.03 131.414 191.55C131.667 192.07 132.007 192.463 132.433 192.73C132.862 192.997 133.341 193.131 133.869 193.131C134.397 193.131 134.875 192.997 135.301 192.73C135.73 192.463 136.069 192.07 136.319 191.55C136.572 191.03 136.699 190.392 136.699 189.636ZM144.271 187.455C144.22 187.023 144.012 186.688 143.649 186.449C143.285 186.21 142.839 186.091 142.311 186.091C141.924 186.091 141.586 186.153 141.297 186.278C141.01 186.403 140.785 186.575 140.623 186.794C140.464 187.013 140.385 187.261 140.385 187.54C140.385 187.773 140.44 187.973 140.551 188.141C140.664 188.305 140.809 188.443 140.985 188.554C141.162 188.662 141.346 188.751 141.539 188.822C141.733 188.891 141.91 188.946 142.072 188.989L142.958 189.227C143.186 189.287 143.439 189.369 143.717 189.474C143.998 189.58 144.267 189.723 144.522 189.905C144.781 190.084 144.994 190.314 145.162 190.595C145.329 190.876 145.413 191.222 145.413 191.631C145.413 192.102 145.289 192.528 145.042 192.909C144.798 193.29 144.44 193.592 143.968 193.817C143.5 194.041 142.93 194.153 142.26 194.153C141.635 194.153 141.093 194.053 140.636 193.851C140.181 193.649 139.824 193.368 139.562 193.007C139.304 192.646 139.157 192.227 139.123 191.75H140.214C140.243 192.08 140.353 192.352 140.547 192.568C140.743 192.781 140.99 192.94 141.288 193.045C141.589 193.148 141.913 193.199 142.26 193.199C142.663 193.199 143.025 193.134 143.346 193.003C143.667 192.869 143.922 192.685 144.109 192.449C144.297 192.21 144.39 191.932 144.39 191.614C144.39 191.324 144.309 191.088 144.147 190.906C143.985 190.724 143.772 190.577 143.508 190.463C143.244 190.349 142.958 190.25 142.652 190.165L141.578 189.858C140.896 189.662 140.356 189.382 139.958 189.018C139.561 188.655 139.362 188.179 139.362 187.591C139.362 187.102 139.494 186.676 139.758 186.312C140.025 185.946 140.383 185.662 140.832 185.46C141.284 185.256 141.788 185.153 142.345 185.153C142.907 185.153 143.407 185.254 143.845 185.456C144.282 185.655 144.629 185.928 144.885 186.274C145.143 186.621 145.279 187.014 145.294 187.455H144.271Z" fill="black"/>
<path d="M111.293 175.707C111.683 176.098 112.317 176.098 112.707 175.707L119.071 169.343C119.462 168.953 119.462 168.319 119.071 167.929C118.681 167.538 118.047 167.538 117.657 167.929L112 173.586L106.343 167.929C105.953 167.538 105.319 167.538 104.929 167.929C104.538 168.319 104.538 168.953 104.929 169.343L111.293 175.707ZM112 126H111V175H112H113V126H112Z" fill="black"/>
<path d="M113.057 75V66.2727H116.006C116.69 66.2727 117.25 66.3963 117.685 66.6435C118.122 66.8878 118.446 67.2188 118.656 67.6364C118.866 68.054 118.972 68.5199 118.972 69.0341C118.972 69.5483 118.866 70.0156 118.656 70.4361C118.449 70.8565 118.128 71.1918 117.693 71.4418C117.259 71.6889 116.702 71.8125 116.023 71.8125H113.909V70.875H115.989C116.457 70.875 116.834 70.794 117.118 70.6321C117.402 70.4702 117.608 70.2514 117.736 69.9759C117.866 69.6974 117.932 69.3835 117.932 69.0341C117.932 68.6847 117.866 68.3722 117.736 68.0966C117.608 67.821 117.401 67.6051 117.114 67.4489C116.827 67.2898 116.446 67.2102 115.972 67.2102H114.114V75H113.057ZM121.543 66.2727V75H120.538V66.2727H121.543ZM125.311 75.1534C124.897 75.1534 124.52 75.0753 124.182 74.919C123.844 74.7599 123.576 74.5312 123.377 74.233C123.178 73.9318 123.078 73.5682 123.078 73.142C123.078 72.767 123.152 72.4631 123.3 72.2301C123.448 71.9943 123.645 71.8097 123.892 71.6761C124.14 71.5426 124.412 71.4432 124.711 71.3778C125.012 71.3097 125.314 71.2557 125.618 71.2159C126.016 71.1648 126.338 71.1264 126.586 71.1009C126.836 71.0724 127.017 71.0256 127.131 70.9602C127.248 70.8949 127.306 70.7812 127.306 70.6193V70.5852C127.306 70.1648 127.191 69.8381 126.961 69.6051C126.733 69.3722 126.388 69.2557 125.925 69.2557C125.445 69.2557 125.069 69.3608 124.796 69.571C124.523 69.7812 124.331 70.0057 124.221 70.2443L123.266 69.9034C123.436 69.5057 123.664 69.196 123.948 68.9744C124.235 68.75 124.547 68.5937 124.885 68.5057C125.226 68.4148 125.561 68.3693 125.891 68.3693C126.101 68.3693 126.343 68.3949 126.615 68.446C126.891 68.4943 127.157 68.5952 127.412 68.7486C127.671 68.902 127.885 69.1335 128.056 69.4432C128.226 69.7528 128.311 70.1676 128.311 70.6875V75H127.306V74.1136H127.255C127.186 74.2557 127.073 74.4077 126.914 74.5696C126.755 74.7315 126.543 74.8693 126.279 74.983C126.015 75.0966 125.692 75.1534 125.311 75.1534ZM125.465 74.25C125.863 74.25 126.198 74.1719 126.471 74.0156C126.746 73.8594 126.953 73.6577 127.093 73.4105C127.235 73.1634 127.306 72.9034 127.306 72.6307V71.7102C127.263 71.7614 127.169 71.8082 127.025 71.8509C126.882 71.8906 126.718 71.9261 126.53 71.9574C126.346 71.9858 126.165 72.0114 125.989 72.0341C125.816 72.054 125.675 72.071 125.567 72.0852C125.306 72.1193 125.061 72.1747 124.834 72.2514C124.61 72.3253 124.428 72.4375 124.289 72.5881C124.152 72.7358 124.084 72.9375 124.084 73.1932C124.084 73.5426 124.213 73.8068 124.472 73.9858C124.733 74.1619 125.064 74.25 125.465 74.25ZM130.56 77.4545C130.39 77.4545 130.238 77.4403 130.104 77.4119C129.971 77.3864 129.879 77.3608 129.827 77.3352L130.083 76.4489C130.327 76.5114 130.543 76.5341 130.731 76.517C130.918 76.5 131.085 76.4162 131.229 76.2656C131.377 76.1179 131.512 75.8778 131.634 75.5455L131.822 75.0341L129.401 68.4545H130.492L132.299 73.6705H132.367L134.174 68.4545H135.265L132.487 75.9545C132.362 76.2926 132.207 76.5724 132.022 76.794C131.837 77.0185 131.623 77.1847 131.379 77.2926C131.137 77.4006 130.864 77.4545 130.56 77.4545ZM138.83 75.1364C138.284 75.1364 137.803 74.9986 137.385 74.723C136.967 74.4446 136.641 74.0526 136.405 73.5469C136.169 73.0384 136.051 72.4375 136.051 71.7443C136.051 71.0568 136.169 70.4602 136.405 69.9545C136.641 69.4489 136.969 69.0582 137.389 68.7827C137.81 68.5071 138.295 68.3693 138.847 68.3693C139.273 68.3693 139.609 68.4403 139.857 68.5824C140.107 68.7216 140.297 68.8807 140.428 69.0597C140.561 69.2358 140.665 69.3807 140.739 69.4943H140.824V66.2727H141.83V75H140.858V73.9943H140.739C140.665 74.1136 140.56 74.2642 140.423 74.446C140.287 74.625 140.092 74.7855 139.839 74.9276C139.587 75.0668 139.25 75.1364 138.83 75.1364ZM138.966 74.233C139.369 74.233 139.71 74.1278 139.989 73.9176C140.267 73.7045 140.479 73.4105 140.624 73.0355C140.768 72.6577 140.841 72.2216 140.841 71.7273C140.841 71.2386 140.77 70.8111 140.628 70.4446C140.486 70.0753 140.276 69.7884 139.997 69.5838C139.719 69.3764 139.375 69.2727 138.966 69.2727C138.54 69.2727 138.185 69.3821 137.901 69.6009C137.619 69.8168 137.408 70.1108 137.266 70.483C137.126 70.8523 137.057 71.267 137.057 71.7273C137.057 72.1932 137.128 72.6165 137.27 72.9972C137.415 73.375 137.628 73.6761 137.909 73.9006C138.193 74.1222 138.545 74.233 138.966 74.233ZM145.737 75.1534C145.322 75.1534 144.946 75.0753 144.608 74.919C144.27 74.7599 144.001 74.5312 143.803 74.233C143.604 73.9318 143.504 73.5682 143.504 73.142C143.504 72.767 143.578 72.4631 143.726 72.2301C143.874 71.9943 144.071 71.8097 144.318 71.6761C144.565 71.5426 144.838 71.4432 145.136 71.3778C145.438 71.3097 145.74 71.2557 146.044 71.2159C146.442 71.1648 146.764 71.1264 147.011 71.1009C147.261 71.0724 147.443 71.0256 147.557 70.9602C147.673 70.8949 147.732 70.7812 147.732 70.6193V70.5852C147.732 70.1648 147.616 69.8381 147.386 69.6051C147.159 69.3722 146.814 69.2557 146.351 69.2557C145.871 69.2557 145.494 69.3608 145.222 69.571C144.949 69.7812 144.757 70.0057 144.646 70.2443L143.692 69.9034C143.862 69.5057 144.089 69.196 144.374 68.9744C144.661 68.75 144.973 68.5937 145.311 68.5057C145.652 68.4148 145.987 68.3693 146.317 68.3693C146.527 68.3693 146.768 68.3949 147.041 68.446C147.317 68.4943 147.582 68.5952 147.838 68.7486C148.097 68.902 148.311 69.1335 148.482 69.4432C148.652 69.7528 148.737 70.1676 148.737 70.6875V75H147.732V74.1136H147.68C147.612 74.2557 147.499 74.4077 147.339 74.5696C147.18 74.7315 146.969 74.8693 146.705 74.983C146.44 75.0966 146.118 75.1534 145.737 75.1534ZM145.891 74.25C146.288 74.25 146.624 74.1719 146.896 74.0156C147.172 73.8594 147.379 73.6577 147.518 73.4105C147.661 73.1634 147.732 72.9034 147.732 72.6307V71.7102C147.689 71.7614 147.595 71.8082 147.45 71.8509C147.308 71.8906 147.143 71.9261 146.956 71.9574C146.771 71.9858 146.591 72.0114 146.415 72.0341C146.241 72.054 146.101 72.071 145.993 72.0852C145.732 72.1193 145.487 72.1747 145.26 72.2514C145.036 72.3253 144.854 72.4375 144.714 72.5881C144.578 72.7358 144.51 72.9375 144.51 73.1932C144.51 73.5426 144.639 73.8068 144.898 73.9858C145.159 74.1619 145.49 74.25 145.891 74.25ZM153.419 68.4545V69.3068H150.027V68.4545H153.419ZM151.016 66.8864H152.022V73.125C152.022 73.4091 152.063 73.6222 152.145 73.7642C152.23 73.9034 152.338 73.9972 152.469 74.0455C152.603 74.0909 152.743 74.1136 152.891 74.1136C153.002 74.1136 153.093 74.108 153.164 74.0966C153.235 74.0824 153.292 74.071 153.334 74.0625L153.539 74.9659C153.471 74.9915 153.375 75.017 153.253 75.0426C153.131 75.071 152.976 75.0852 152.789 75.0852C152.505 75.0852 152.226 75.0241 151.953 74.902C151.684 74.7798 151.459 74.5938 151.28 74.3438C151.104 74.0938 151.016 73.7784 151.016 73.3977V66.8864ZM157.606 75.1364C156.975 75.1364 156.431 74.9972 155.974 74.7188C155.52 74.4375 155.169 74.0455 154.922 73.5426C154.677 73.0369 154.555 72.4489 154.555 71.7784C154.555 71.108 154.677 70.517 154.922 70.0057C155.169 69.4915 155.512 69.0909 155.953 68.804C156.396 68.5142 156.913 68.3693 157.504 68.3693C157.845 68.3693 158.181 68.4261 158.514 68.5398C158.846 68.6534 159.149 68.8381 159.422 69.0938C159.694 69.3466 159.912 69.6818 160.074 70.0994C160.235 70.517 160.316 71.0312 160.316 71.642V72.0682H155.271V71.1989H159.294C159.294 70.8295 159.22 70.5 159.072 70.2102C158.927 69.9205 158.72 69.6918 158.45 69.5241C158.183 69.3565 157.868 69.2727 157.504 69.2727C157.103 69.2727 156.757 69.3722 156.464 69.571C156.174 69.767 155.951 70.0227 155.795 70.3381C155.639 70.6534 155.561 70.9915 155.561 71.3523V71.9318C155.561 72.4261 155.646 72.8452 155.816 73.1889C155.99 73.5298 156.23 73.7898 156.537 73.9688C156.843 74.1449 157.2 74.233 157.606 74.233C157.87 74.233 158.109 74.196 158.322 74.1222C158.538 74.0455 158.724 73.9318 158.88 73.7812C159.037 73.6278 159.157 73.4375 159.243 73.2102L160.214 73.483C160.112 73.8125 159.94 74.1023 159.699 74.3523C159.457 74.5994 159.159 74.7926 158.804 74.9318C158.449 75.0682 158.049 75.1364 157.606 75.1364ZM162.341 75H161.233L164.437 66.2727H165.528L168.733 75H167.625L165.017 67.6534H164.949L162.341 75ZM162.75 71.5909H167.216V72.5284H162.75V71.5909ZM170.092 75V66.2727H173.041C173.725 66.2727 174.285 66.3963 174.72 66.6435C175.157 66.8878 175.481 67.2188 175.691 67.6364C175.902 68.054 176.007 68.5199 176.007 69.0341C176.007 69.5483 175.902 70.0156 175.691 70.4361C175.484 70.8565 175.163 71.1918 174.728 71.4418C174.294 71.6889 173.737 71.8125 173.058 71.8125H170.944V70.875H173.024C173.493 70.875 173.869 70.794 174.153 70.6321C174.437 70.4702 174.643 70.2514 174.771 69.9759C174.902 69.6974 174.967 69.3835 174.967 69.0341C174.967 68.6847 174.902 68.3722 174.771 68.0966C174.643 67.821 174.436 67.6051 174.149 67.4489C173.862 67.2898 173.481 67.2102 173.007 67.2102H171.149V75H170.092ZM178.766 66.2727V75H177.709V66.2727H178.766ZM182.419 71.1818L182.487 69.3068L180.902 70.3125L180.493 69.5966L182.163 68.7273L180.493 67.858L180.902 67.142L182.487 68.1477L182.419 66.2727H183.237L183.169 68.1477L184.754 67.142L185.163 67.858L183.493 68.7273L185.163 69.5966L184.754 70.3125L183.169 69.3068L183.237 71.1818H182.419Z" fill="black"/>
<rect x="72.5" y="79.5" width="74" height="62" fill="#C7F7C6" stroke="black"/>
<rect x="53.5" y="79.5" width="112" height="62" fill="#C7F7C6" stroke="black"/>
<path d="M71.0568 115V106.273H74.0057C74.6903 106.273 75.25 106.396 75.6847 106.643C76.1222 106.888 76.446 107.219 76.6562 107.636C76.8665 108.054 76.9716 108.52 76.9716 109.034C76.9716 109.548 76.8665 110.016 76.6562 110.436C76.4489 110.857 76.1278 111.192 75.6932 111.442C75.2585 111.689 74.7017 111.812 74.0227 111.812H71.9091V110.875H73.9886C74.4574 110.875 74.8338 110.794 75.1179 110.632C75.402 110.47 75.608 110.251 75.7358 109.976C75.8665 109.697 75.9318 109.384 75.9318 109.034C75.9318 108.685 75.8665 108.372 75.7358 108.097C75.608 107.821 75.4006 107.605 75.1136 107.449C74.8267 107.29 74.446 107.21 73.9716 107.21H72.1136V115H71.0568ZM79.5433 106.273V115H78.5376V106.273H79.5433ZM83.3114 115.153C82.8967 115.153 82.5202 115.075 82.1822 114.919C81.8441 114.76 81.5756 114.531 81.3768 114.233C81.1779 113.932 81.0785 113.568 81.0785 113.142C81.0785 112.767 81.1523 112.463 81.3001 112.23C81.4478 111.994 81.6452 111.81 81.8924 111.676C82.1396 111.543 82.4123 111.443 82.7106 111.378C83.0117 111.31 83.3143 111.256 83.6183 111.216C84.016 111.165 84.3384 111.126 84.5856 111.101C84.8356 111.072 85.0174 111.026 85.131 110.96C85.2475 110.895 85.3058 110.781 85.3058 110.619V110.585C85.3058 110.165 85.1907 109.838 84.9606 109.605C84.7333 109.372 84.3881 109.256 83.9251 109.256C83.445 109.256 83.0685 109.361 82.7958 109.571C82.5231 109.781 82.3313 110.006 82.2205 110.244L81.266 109.903C81.4364 109.506 81.6637 109.196 81.9478 108.974C82.2347 108.75 82.5472 108.594 82.8853 108.506C83.2262 108.415 83.5614 108.369 83.891 108.369C84.1012 108.369 84.3427 108.395 84.6154 108.446C84.891 108.494 85.1566 108.595 85.4123 108.749C85.6708 108.902 85.8853 109.134 86.0558 109.443C86.2262 109.753 86.3114 110.168 86.3114 110.688V115H85.3058V114.114H85.2546C85.1864 114.256 85.0728 114.408 84.9137 114.57C84.7546 114.732 84.543 114.869 84.2788 114.983C84.0146 115.097 83.6921 115.153 83.3114 115.153ZM83.4648 114.25C83.8626 114.25 84.1978 114.172 84.4705 114.016C84.7461 113.859 84.9535 113.658 85.0927 113.411C85.2347 113.163 85.3058 112.903 85.3058 112.631V111.71C85.2631 111.761 85.1694 111.808 85.0245 111.851C84.8825 111.891 84.7177 111.926 84.5302 111.957C84.3455 111.986 84.1651 112.011 83.989 112.034C83.8157 112.054 83.6751 112.071 83.5671 112.085C83.3058 112.119 83.0614 112.175 82.8342 112.251C82.6097 112.325 82.4279 112.437 82.2887 112.588C82.1523 112.736 82.0842 112.937 82.0842 113.193C82.0842 113.543 82.2134 113.807 82.4719 113.986C82.7333 114.162 83.0643 114.25 83.4648 114.25ZM88.5604 117.455C88.3899 117.455 88.2379 117.44 88.1044 117.412C87.9709 117.386 87.8786 117.361 87.8274 117.335L88.0831 116.449C88.3274 116.511 88.5433 116.534 88.7308 116.517C88.9183 116.5 89.0845 116.416 89.2294 116.266C89.3771 116.118 89.5121 115.878 89.6342 115.545L89.8217 115.034L87.4013 108.455H88.4922L90.299 113.67H90.3672L92.174 108.455H93.2649L90.4865 115.955C90.3615 116.293 90.2067 116.572 90.022 116.794C89.8374 117.018 89.6229 117.185 89.3786 117.293C89.1371 117.401 88.8643 117.455 88.5604 117.455ZM96.8295 115.136C96.2841 115.136 95.8026 114.999 95.3849 114.723C94.9673 114.445 94.6406 114.053 94.4048 113.547C94.169 113.038 94.0511 112.438 94.0511 111.744C94.0511 111.057 94.169 110.46 94.4048 109.955C94.6406 109.449 94.9688 109.058 95.3892 108.783C95.8097 108.507 96.2955 108.369 96.8466 108.369C97.2727 108.369 97.6094 108.44 97.8565 108.582C98.1065 108.722 98.2969 108.881 98.4276 109.06C98.5611 109.236 98.6648 109.381 98.7386 109.494H98.8239V106.273H99.8295V115H98.858V113.994H98.7386C98.6648 114.114 98.5597 114.264 98.4233 114.446C98.2869 114.625 98.0923 114.786 97.8395 114.928C97.5866 115.067 97.25 115.136 96.8295 115.136ZM96.9659 114.233C97.3693 114.233 97.7102 114.128 97.9886 113.918C98.267 113.705 98.4787 113.411 98.6236 113.036C98.7685 112.658 98.8409 112.222 98.8409 111.727C98.8409 111.239 98.7699 110.811 98.6278 110.445C98.4858 110.075 98.2756 109.788 97.9972 109.584C97.7188 109.376 97.375 109.273 96.9659 109.273C96.5398 109.273 96.1847 109.382 95.9006 109.601C95.6193 109.817 95.4077 110.111 95.2656 110.483C95.1264 110.852 95.0568 111.267 95.0568 111.727C95.0568 112.193 95.1278 112.616 95.2699 112.997C95.4148 113.375 95.6278 113.676 95.9091 113.901C96.1932 114.122 96.5455 114.233 96.9659 114.233ZM103.737 115.153C103.322 115.153 102.946 115.075 102.608 114.919C102.27 114.76 102.001 114.531 101.803 114.233C101.604 113.932 101.504 113.568 101.504 113.142C101.504 112.767 101.578 112.463 101.726 112.23C101.874 111.994 102.071 111.81 102.318 111.676C102.565 111.543 102.838 111.443 103.136 111.378C103.438 111.31 103.74 111.256 104.044 111.216C104.442 111.165 104.764 111.126 105.011 111.101C105.261 111.072 105.443 111.026 105.557 110.96C105.673 110.895 105.732 110.781 105.732 110.619V110.585C105.732 110.165 105.616 109.838 105.386 109.605C105.159 109.372 104.814 109.256 104.351 109.256C103.871 109.256 103.494 109.361 103.222 109.571C102.949 109.781 102.757 110.006 102.646 110.244L101.692 109.903C101.862 109.506 102.089 109.196 102.374 108.974C102.661 108.75 102.973 108.594 103.311 108.506C103.652 108.415 103.987 108.369 104.317 108.369C104.527 108.369 104.768 108.395 105.041 108.446C105.317 108.494 105.582 108.595 105.838 108.749C106.097 108.902 106.311 109.134 106.482 109.443C106.652 109.753 106.737 110.168 106.737 110.688V115H105.732V114.114H105.68C105.612 114.256 105.499 114.408 105.339 114.57C105.18 114.732 104.969 114.869 104.705 114.983C104.44 115.097 104.118 115.153 103.737 115.153ZM103.891 114.25C104.288 114.25 104.624 114.172 104.896 114.016C105.172 113.859 105.379 113.658 105.518 113.411C105.661 113.163 105.732 112.903 105.732 112.631V111.71C105.689 111.761 105.595 111.808 105.45 111.851C105.308 111.891 105.143 111.926 104.956 111.957C104.771 111.986 104.591 112.011 104.415 112.034C104.241 112.054 104.101 112.071 103.993 112.085C103.732 112.119 103.487 112.175 103.26 112.251C103.036 112.325 102.854 112.437 102.714 112.588C102.578 112.736 102.51 112.937 102.51 113.193C102.51 113.543 102.639 113.807 102.898 113.986C103.159 114.162 103.49 114.25 103.891 114.25ZM111.419 108.455V109.307H108.027V108.455H111.419ZM109.016 106.886H110.022V113.125C110.022 113.409 110.063 113.622 110.145 113.764C110.23 113.903 110.338 113.997 110.469 114.045C110.603 114.091 110.743 114.114 110.891 114.114C111.002 114.114 111.093 114.108 111.164 114.097C111.235 114.082 111.292 114.071 111.334 114.062L111.539 114.966C111.471 114.991 111.375 115.017 111.253 115.043C111.131 115.071 110.976 115.085 110.789 115.085C110.505 115.085 110.226 115.024 109.953 114.902C109.684 114.78 109.459 114.594 109.28 114.344C109.104 114.094 109.016 113.778 109.016 113.398V106.886ZM115.606 115.136C114.975 115.136 114.431 114.997 113.974 114.719C113.52 114.438 113.169 114.045 112.922 113.543C112.677 113.037 112.555 112.449 112.555 111.778C112.555 111.108 112.677 110.517 112.922 110.006C113.169 109.491 113.512 109.091 113.953 108.804C114.396 108.514 114.913 108.369 115.504 108.369C115.845 108.369 116.181 108.426 116.514 108.54C116.846 108.653 117.149 108.838 117.422 109.094C117.694 109.347 117.912 109.682 118.074 110.099C118.235 110.517 118.316 111.031 118.316 111.642V112.068H113.271V111.199H117.294C117.294 110.83 117.22 110.5 117.072 110.21C116.927 109.92 116.72 109.692 116.45 109.524C116.183 109.357 115.868 109.273 115.504 109.273C115.103 109.273 114.757 109.372 114.464 109.571C114.174 109.767 113.951 110.023 113.795 110.338C113.639 110.653 113.561 110.991 113.561 111.352V111.932C113.561 112.426 113.646 112.845 113.816 113.189C113.99 113.53 114.23 113.79 114.537 113.969C114.843 114.145 115.2 114.233 115.606 114.233C115.87 114.233 116.109 114.196 116.322 114.122C116.538 114.045 116.724 113.932 116.88 113.781C117.037 113.628 117.157 113.437 117.243 113.21L118.214 113.483C118.112 113.812 117.94 114.102 117.699 114.352C117.457 114.599 117.159 114.793 116.804 114.932C116.449 115.068 116.049 115.136 115.606 115.136ZM128.13 108.455C128.079 108.023 127.872 107.688 127.508 107.449C127.145 107.21 126.699 107.091 126.17 107.091C125.784 107.091 125.446 107.153 125.156 107.278C124.869 107.403 124.645 107.575 124.483 107.794C124.324 108.013 124.244 108.261 124.244 108.54C124.244 108.773 124.299 108.973 124.41 109.141C124.524 109.305 124.669 109.443 124.845 109.554C125.021 109.662 125.206 109.751 125.399 109.822C125.592 109.891 125.77 109.946 125.931 109.989L126.818 110.227C127.045 110.287 127.298 110.369 127.576 110.474C127.858 110.58 128.126 110.723 128.382 110.905C128.64 111.084 128.853 111.314 129.021 111.595C129.189 111.876 129.272 112.222 129.272 112.631C129.272 113.102 129.149 113.528 128.902 113.909C128.657 114.29 128.299 114.592 127.828 114.817C127.359 115.041 126.789 115.153 126.119 115.153C125.494 115.153 124.953 115.053 124.495 114.851C124.041 114.649 123.683 114.368 123.422 114.007C123.163 113.646 123.017 113.227 122.983 112.75H124.074C124.102 113.08 124.213 113.352 124.406 113.568C124.602 113.781 124.849 113.94 125.147 114.045C125.449 114.148 125.772 114.199 126.119 114.199C126.522 114.199 126.885 114.134 127.206 114.003C127.527 113.869 127.781 113.685 127.968 113.449C128.156 113.21 128.25 112.932 128.25 112.614C128.25 112.324 128.169 112.088 128.007 111.906C127.845 111.724 127.632 111.577 127.368 111.463C127.103 111.349 126.818 111.25 126.511 111.165L125.437 110.858C124.755 110.662 124.216 110.382 123.818 110.018C123.42 109.655 123.221 109.179 123.221 108.591C123.221 108.102 123.353 107.676 123.618 107.312C123.885 106.946 124.243 106.662 124.691 106.46C125.143 106.256 125.647 106.153 126.204 106.153C126.767 106.153 127.267 106.254 127.704 106.456C128.142 106.655 128.488 106.928 128.744 107.274C129.002 107.621 129.139 108.014 129.153 108.455H128.13ZM133.703 115H131.01V106.273H133.822C134.669 106.273 135.393 106.447 135.996 106.797C136.598 107.143 137.06 107.642 137.381 108.293C137.702 108.94 137.862 109.716 137.862 110.619C137.862 111.528 137.7 112.311 137.376 112.967C137.053 113.621 136.581 114.124 135.962 114.476C135.342 114.825 134.589 115 133.703 115ZM132.067 114.062H133.635C134.357 114.062 134.955 113.923 135.429 113.645C135.903 113.366 136.257 112.97 136.49 112.456C136.723 111.942 136.839 111.33 136.839 110.619C136.839 109.915 136.724 109.308 136.494 108.8C136.264 108.288 135.92 107.896 135.463 107.624C135.006 107.348 134.436 107.21 133.754 107.21H132.067V114.062ZM139.635 115V106.273H140.692V110.602H140.794L144.714 106.273H146.095L142.43 110.21L146.095 115H144.817L141.783 110.943L140.692 112.17V115H139.635Z" fill="black"/>
<path d="M109.293 95.7071C109.683 96.0976 110.317 96.0976 110.707 95.7071L117.071 89.3431C117.462 88.9526 117.462 88.3195 117.071 87.9289C116.681 87.5384 116.047 87.5384 115.657 87.9289L110 93.5858L104.343 87.9289C103.953 87.5384 103.319 87.5384 102.929 87.9289C102.538 88.3195 102.538 88.9526 102.929 89.3431L109.293 95.7071ZM110 46H109V95H110H111V46H110Z" fill="black"/>
<rect x="72.5" y="0.5" width="74" height="62" fill="#C7F7C6" stroke="black"/>
<path d="M79.4148 36H78.3068L81.5114 27.2727H82.6023L85.8068 36H84.6989L82.0909 28.6534H82.0227L79.4148 36ZM79.8239 32.5909H84.2898V33.5284H79.8239V32.5909ZM87.0298 38.4545V29.4545H88.0014V30.4943H88.1207C88.1946 30.3807 88.2969 30.2358 88.4276 30.0597C88.5611 29.8807 88.7514 29.7216 88.9986 29.5824C89.2486 29.4403 89.5866 29.3693 90.0128 29.3693C90.5639 29.3693 91.0497 29.5071 91.4702 29.7827C91.8906 30.0582 92.2188 30.4489 92.4545 30.9545C92.6903 31.4602 92.8082 32.0568 92.8082 32.7443C92.8082 33.4375 92.6903 34.0384 92.4545 34.5469C92.2188 35.0526 91.892 35.4446 91.4744 35.723C91.0568 35.9986 90.5753 36.1364 90.0298 36.1364C89.6094 36.1364 89.2727 36.0668 89.0199 35.9276C88.767 35.7855 88.5724 35.625 88.4361 35.446C88.2997 35.2642 88.1946 35.1136 88.1207 34.9943H88.0355V38.4545H87.0298ZM88.0185 32.7273C88.0185 33.2216 88.0909 33.6577 88.2358 34.0355C88.3807 34.4105 88.5923 34.7045 88.8707 34.9176C89.1491 35.1278 89.4901 35.233 89.8935 35.233C90.3139 35.233 90.6648 35.1222 90.946 34.9006C91.2301 34.6761 91.4432 34.375 91.5852 33.9972C91.7301 33.6165 91.8026 33.1932 91.8026 32.7273C91.8026 32.267 91.7315 31.8523 91.5895 31.483C91.4503 31.1108 91.2386 30.8168 90.9545 30.6009C90.6733 30.3821 90.3196 30.2727 89.8935 30.2727C89.4844 30.2727 89.1406 30.3764 88.8622 30.5838C88.5838 30.7884 88.3736 31.0753 88.2315 31.4446C88.0895 31.8111 88.0185 32.2386 88.0185 32.7273ZM94.3423 38.4545V29.4545H95.3139V30.4943H95.4332C95.5071 30.3807 95.6094 30.2358 95.7401 30.0597C95.8736 29.8807 96.0639 29.7216 96.3111 29.5824C96.5611 29.4403 96.8991 29.3693 97.3253 29.3693C97.8764 29.3693 98.3622 29.5071 98.7827 29.7827C99.2031 30.0582 99.5313 30.4489 99.767 30.9545C100.003 31.4602 100.121 32.0568 100.121 32.7443C100.121 33.4375 100.003 34.0384 99.767 34.5469C99.5313 35.0526 99.2045 35.4446 98.7869 35.723C98.3693 35.9986 97.8878 36.1364 97.3423 36.1364C96.9219 36.1364 96.5852 36.0668 96.3324 35.9276C96.0795 35.7855 95.8849 35.625 95.7486 35.446C95.6122 35.2642 95.5071 35.1136 95.4332 34.9943H95.348V38.4545H94.3423ZM95.331 32.7273C95.331 33.2216 95.4034 33.6577 95.5483 34.0355C95.6932 34.4105 95.9048 34.7045 96.1832 34.9176C96.4616 35.1278 96.8026 35.233 97.206 35.233C97.6264 35.233 97.9773 35.1222 98.2585 34.9006C98.5426 34.6761 98.7557 34.375 98.8977 33.9972C99.0426 33.6165 99.1151 33.1932 99.1151 32.7273C99.1151 32.267 99.044 31.8523 98.902 31.483C98.7628 31.1108 98.5511 30.8168 98.267 30.6009C97.9858 30.3821 97.6321 30.2727 97.206 30.2727C96.7969 30.2727 96.4531 30.3764 96.1747 30.5838C95.8963 30.7884 95.6861 31.0753 95.544 31.4446C95.402 31.8111 95.331 32.2386 95.331 32.7273ZM102.661 27.2727V36H101.655V27.2727H102.661ZM104.502 36V29.4545H105.508V36H104.502ZM105.014 28.3636C104.818 28.3636 104.649 28.2969 104.507 28.1634C104.368 28.0298 104.298 27.8693 104.298 27.6818C104.298 27.4943 104.368 27.3338 104.507 27.2003C104.649 27.0668 104.818 27 105.014 27C105.21 27 105.377 27.0668 105.517 27.2003C105.659 27.3338 105.73 27.4943 105.73 27.6818C105.73 27.8693 105.659 28.0298 105.517 28.1634C105.377 28.2969 105.21 28.3636 105.014 28.3636ZM110.009 36.1364C109.396 36.1364 108.867 35.9915 108.424 35.7017C107.981 35.4119 107.64 35.0128 107.401 34.5043C107.163 33.9957 107.043 33.4148 107.043 32.7614C107.043 32.0966 107.165 31.5099 107.41 31.0014C107.657 30.4901 108.001 30.0909 108.441 29.804C108.884 29.5142 109.401 29.3693 109.992 29.3693C110.452 29.3693 110.867 29.4545 111.237 29.625C111.606 29.7955 111.908 30.0341 112.144 30.3409C112.38 30.6477 112.526 31.0057 112.583 31.4148H111.577C111.501 31.1165 111.33 30.8523 111.066 30.6222C110.805 30.3892 110.452 30.2727 110.009 30.2727C109.617 30.2727 109.273 30.375 108.978 30.5795C108.685 30.7812 108.457 31.0668 108.292 31.4361C108.13 31.8026 108.049 32.233 108.049 32.7273C108.049 33.233 108.129 33.6733 108.288 34.0483C108.45 34.4233 108.677 34.7145 108.969 34.9219C109.265 35.1293 109.612 35.233 110.009 35.233C110.271 35.233 110.508 35.1875 110.721 35.0966C110.934 35.0057 111.114 34.875 111.262 34.7045C111.41 34.5341 111.515 34.3295 111.577 34.0909H112.583C112.526 34.4773 112.386 34.8253 112.161 35.1349C111.94 35.4418 111.646 35.6861 111.279 35.8679C110.915 36.0469 110.492 36.1364 110.009 36.1364ZM115.979 36.1534C115.565 36.1534 115.188 36.0753 114.85 35.919C114.512 35.7599 114.244 35.5312 114.045 35.233C113.846 34.9318 113.746 34.5682 113.746 34.142C113.746 33.767 113.82 33.4631 113.968 33.2301C114.116 32.9943 114.313 32.8097 114.56 32.6761C114.808 32.5426 115.08 32.4432 115.379 32.3778C115.68 32.3097 115.982 32.2557 116.286 32.2159C116.684 32.1648 117.006 32.1264 117.254 32.1009C117.504 32.0724 117.685 32.0256 117.799 31.9602C117.915 31.8949 117.974 31.7812 117.974 31.6193V31.5852C117.974 31.1648 117.859 30.8381 117.629 30.6051C117.401 30.3722 117.056 30.2557 116.593 30.2557C116.113 30.2557 115.737 30.3608 115.464 30.571C115.191 30.7812 114.999 31.0057 114.888 31.2443L113.934 30.9034C114.104 30.5057 114.332 30.196 114.616 29.9744C114.903 29.75 115.215 29.5937 115.553 29.5057C115.894 29.4148 116.229 29.3693 116.559 29.3693C116.769 29.3693 117.011 29.3949 117.283 29.446C117.559 29.4943 117.825 29.5952 118.08 29.7486C118.339 29.902 118.553 30.1335 118.724 30.4432C118.894 30.7528 118.979 31.1676 118.979 31.6875V36H117.974V35.1136H117.923C117.854 35.2557 117.741 35.4077 117.582 35.5696C117.423 35.7315 117.211 35.8693 116.947 35.983C116.683 36.0966 116.36 36.1534 115.979 36.1534ZM116.133 35.25C116.531 35.25 116.866 35.1719 117.138 35.0156C117.414 34.8594 117.621 34.6577 117.761 34.4105C117.903 34.1634 117.974 33.9034 117.974 33.6307V32.7102C117.931 32.7614 117.837 32.8082 117.692 32.8509C117.55 32.8906 117.386 32.9261 117.198 32.9574C117.013 32.9858 116.833 33.0114 116.657 33.0341C116.484 33.054 116.343 33.071 116.235 33.0852C115.974 33.1193 115.729 33.1747 115.502 33.2514C115.278 33.3253 115.096 33.4375 114.957 33.5881C114.82 33.7358 114.752 33.9375 114.752 34.1932C114.752 34.5426 114.881 34.8068 115.14 34.9858C115.401 35.1619 115.732 35.25 116.133 35.25ZM123.662 29.4545V30.3068H120.27V29.4545H123.662ZM121.258 27.8864H122.264V34.125C122.264 34.4091 122.305 34.6222 122.387 34.7642C122.473 34.9034 122.581 34.9972 122.711 35.0455C122.845 35.0909 122.985 35.1136 123.133 35.1136C123.244 35.1136 123.335 35.108 123.406 35.0966C123.477 35.0824 123.534 35.071 123.576 35.0625L123.781 35.9659C123.713 35.9915 123.618 36.017 123.495 36.0426C123.373 36.071 123.218 36.0852 123.031 36.0852C122.747 36.0852 122.468 36.0241 122.196 35.902C121.926 35.7798 121.701 35.5938 121.522 35.3438C121.346 35.0938 121.258 34.7784 121.258 34.3977V27.8864ZM125.174 36V29.4545H126.18V36H125.174ZM125.686 28.3636C125.49 28.3636 125.321 28.2969 125.179 28.1634C125.039 28.0298 124.97 27.8693 124.97 27.6818C124.97 27.4943 125.039 27.3338 125.179 27.2003C125.321 27.0668 125.49 27 125.686 27C125.882 27 126.049 27.0668 126.189 27.2003C126.331 27.3338 126.402 27.4943 126.402 27.6818C126.402 27.8693 126.331 28.0298 126.189 28.1634C126.049 28.2969 125.882 28.3636 125.686 28.3636ZM130.681 36.1364C130.09 36.1364 129.572 35.9957 129.126 35.7145C128.683 35.4332 128.336 35.0398 128.086 34.5341C127.839 34.0284 127.715 33.4375 127.715 32.7614C127.715 32.0795 127.839 31.4844 128.086 30.9759C128.336 30.4673 128.683 30.0724 129.126 29.7912C129.572 29.5099 130.09 29.3693 130.681 29.3693C131.272 29.3693 131.789 29.5099 132.232 29.7912C132.678 30.0724 133.025 30.4673 133.272 30.9759C133.522 31.4844 133.647 32.0795 133.647 32.7614C133.647 33.4375 133.522 34.0284 133.272 34.5341C133.025 35.0398 132.678 35.4332 132.232 35.7145C131.789 35.9957 131.272 36.1364 130.681 36.1364ZM130.681 35.233C131.13 35.233 131.499 35.1179 131.789 34.8878C132.079 34.6577 132.293 34.3551 132.433 33.9801C132.572 33.6051 132.641 33.1989 132.641 32.7614C132.641 32.3239 132.572 31.9162 132.433 31.5384C132.293 31.1605 132.079 30.8551 131.789 30.6222C131.499 30.3892 131.13 30.2727 130.681 30.2727C130.232 30.2727 129.863 30.3892 129.573 30.6222C129.283 30.8551 129.069 31.1605 128.93 31.5384C128.79 31.9162 128.721 32.3239 128.721 32.7614C128.721 33.1989 128.79 33.6051 128.93 33.9801C129.069 34.3551 129.283 34.6577 129.573 34.8878C129.863 35.1179 130.232 35.233 130.681 35.233ZM136.188 32.0625V36H135.182V29.4545H136.154V30.4773H136.239C136.392 30.1449 136.625 29.8778 136.938 29.6761C137.25 29.4716 137.654 29.3693 138.148 29.3693C138.591 29.3693 138.979 29.4602 139.311 29.642C139.644 29.821 139.902 30.0938 140.087 30.4602C140.272 30.8239 140.364 31.2841 140.364 31.8409V36H139.358V31.9091C139.358 31.3949 139.225 30.9943 138.958 30.7074C138.691 30.4176 138.324 30.2727 137.858 30.2727C137.537 30.2727 137.25 30.3423 136.998 30.4815C136.748 30.6207 136.55 30.8239 136.405 31.0909C136.26 31.358 136.188 31.6818 136.188 32.0625Z" fill="black"/>
</svg>
